<svg xmlns="http://www.w3.org/2000/svg" width="320" height="400" viewBox="0 0 320 400" role="img" aria-labelledby="t">
  <title id="t">Illustrative Hebrew formal cover letter PDF preview</title>
  <defs>
    <linearGradient id="pbg" x1="0%" y1="0%" x2="100%" y2="100%">
      <stop offset="0%" style="stop-color:#ffffff"/>
      <stop offset="100%" style="stop-color:#ecfdf5"/>
    </linearGradient>
    <filter id="sh2" x="-20%" y="-20%" width="140%" height="140%">
      <feDropShadow dx="0" dy="2" stdDeviation="3" flood-opacity="0.1"/>
    </filter>
  </defs>
  <rect width="320" height="400" rx="10" fill="url(#pbg)" stroke="#0d9488" stroke-width="1.5" filter="url(#sh2)"/>
  <rect x="0" y="0" width="320" height="36" fill="#f0fdfa"/>
  <text x="160" y="24" text-anchor="middle" font-family="system-ui,sans-serif" font-size="11" font-weight="600" fill="#0f766e">מכתב כיסוי רשמי — דוגמה</text>
  <rect x="28" y="52" width="100" height="7" rx="2" fill="#0f766e" opacity="0.75"/>
  <rect x="28" y="68" width="264" height="4" rx="1" fill="#cbd5e1"/>
  <rect x="28" y="78" width="240" height="4" rx="1" fill="#e2e8f0"/>
  <rect x="28" y="100" width="264" height="5" rx="1" fill="#94a3b8" opacity="0.5"/>
  <rect x="28" y="112" width="264" height="5" rx="1" fill="#94a3b8" opacity="0.35"/>
  <rect x="28" y="124" width="220" height="5" rx="1" fill="#94a3b8" opacity="0.35"/>
  <rect x="28" y="144" width="264" height="5" rx="1" fill="#94a3b8" opacity="0.3"/>
  <rect x="28" y="156" width="200" height="5" rx="1" fill="#94a3b8" opacity="0.28"/>
  <rect x="28" y="176" width="264" height="5" rx="1" fill="#94a3b8" opacity="0.28"/>
  <rect x="28" y="188" width="240" height="5" rx="1" fill="#94a3b8" opacity="0.25"/>
  <rect x="28" y="208" width="180" height="5" rx="1" fill="#94a3b8" opacity="0.22"/>
  <rect x="28" y="248" width="140" height="36" rx="4" fill="#0f766e" opacity="0.12"/>
  <text x="160" y="378" text-anchor="middle" font-family="system-ui,sans-serif" font-size="10" fill="#64748b">Illustrative layout — not a real letter</text>
</svg>
